M48
;DRILL file {KiCad (5.0.2)-1} date 3/26/2019 3:17:48 PM
;FORMAT={-:-/ absolute / inch / decimal}
FMAT,2
INCH,TZ
T1C0.0315
T2C0.0350
T3C0.0394
T4C0.0512
T5C0.0800
%
G90
G05
T1
X4.933Y-2.7065
X4.933Y-2.7815
X4.933Y-2.8565
X4.933Y-2.9315
T2
X4.844Y-3.3485
X4.844Y-3.4485
T3
X5.0185Y-3.57
X5.1185Y-3.57
X5.2185Y-3.57
T4
X4.5005Y-2.63
X4.5005Y-2.8269
X5.233Y-2.569
X5.233Y-3.069
X5.333Y-2.569
X5.333Y-3.069
X5.433Y-2.569
X5.433Y-3.069
X6.0325Y-2.8266
X6.0325Y-3.0235
T5
X4.644Y-3.1485
X4.644Y-3.5485
T0
M30
