G04 #@! TF.GenerationSoftware,KiCad,Pcbnew,(5.0.2)-1*
G04 #@! TF.CreationDate,2019-03-26T15:17:44-05:00*
G04 #@! TF.ProjectId,currentsense,63757272-656e-4747-9365-6e73652e6b69,rev?*
G04 #@! TF.SameCoordinates,Original*
G04 #@! TF.FileFunction,Soldermask,Bot*
G04 #@! TF.FilePolarity,Negative*
%FSLAX46Y46*%
G04 Gerber Fmt 4.6, Leading zero omitted, Abs format (unit mm)*
G04 Created by KiCad (PCBNEW (5.0.2)-1) date 3/26/2019 3:17:44 PM*
%MOMM*%
%LPD*%
G01*
G04 APERTURE LIST*
%ADD10C,0.200000*%
%ADD11C,0.100000*%
G04 APERTURE END LIST*
D10*
X158470600Y-57480200D02*
X108597700Y-57480200D01*
X158483300Y-93091000D02*
X158483300Y-57467500D01*
X108597700Y-93091000D02*
X158483300Y-93091000D01*
X108597700Y-57467500D02*
X108597700Y-93091000D01*
D11*
G36*
X127580343Y-89783519D02*
X127646527Y-89790037D01*
X127759753Y-89824384D01*
X127816367Y-89841557D01*
X127954987Y-89915652D01*
X127972891Y-89925222D01*
X128008629Y-89954552D01*
X128110086Y-90037814D01*
X128193348Y-90139271D01*
X128222678Y-90175009D01*
X128222679Y-90175011D01*
X128306343Y-90331533D01*
X128306343Y-90331534D01*
X128357863Y-90501373D01*
X128375259Y-90678000D01*
X128357863Y-90854627D01*
X128323516Y-90967853D01*
X128306343Y-91024467D01*
X128234975Y-91157986D01*
X128222678Y-91180991D01*
X128193348Y-91216729D01*
X128110086Y-91318186D01*
X128008629Y-91401448D01*
X127972891Y-91430778D01*
X127972889Y-91430779D01*
X127816367Y-91514443D01*
X127759753Y-91531616D01*
X127646527Y-91565963D01*
X127580343Y-91572481D01*
X127514160Y-91579000D01*
X127425640Y-91579000D01*
X127359457Y-91572481D01*
X127293273Y-91565963D01*
X127180047Y-91531616D01*
X127123433Y-91514443D01*
X126966911Y-91430779D01*
X126966909Y-91430778D01*
X126931171Y-91401448D01*
X126829714Y-91318186D01*
X126746452Y-91216729D01*
X126717122Y-91180991D01*
X126704825Y-91157986D01*
X126633457Y-91024467D01*
X126616284Y-90967853D01*
X126581937Y-90854627D01*
X126564541Y-90678000D01*
X126581937Y-90501373D01*
X126633457Y-90331534D01*
X126633457Y-90331533D01*
X126717121Y-90175011D01*
X126717122Y-90175009D01*
X126746452Y-90139271D01*
X126829714Y-90037814D01*
X126931171Y-89954552D01*
X126966909Y-89925222D01*
X126984813Y-89915652D01*
X127123433Y-89841557D01*
X127180047Y-89824384D01*
X127293273Y-89790037D01*
X127359457Y-89783519D01*
X127425640Y-89777000D01*
X127514160Y-89777000D01*
X127580343Y-89783519D01*
X127580343Y-89783519D01*
G37*
G36*
X133450900Y-91579000D02*
X131648900Y-91579000D01*
X131648900Y-89777000D01*
X133450900Y-89777000D01*
X133450900Y-91579000D01*
X133450900Y-91579000D01*
G37*
G36*
X130120343Y-89783519D02*
X130186527Y-89790037D01*
X130299753Y-89824384D01*
X130356367Y-89841557D01*
X130494987Y-89915652D01*
X130512891Y-89925222D01*
X130548629Y-89954552D01*
X130650086Y-90037814D01*
X130733348Y-90139271D01*
X130762678Y-90175009D01*
X130762679Y-90175011D01*
X130846343Y-90331533D01*
X130846343Y-90331534D01*
X130897863Y-90501373D01*
X130915259Y-90678000D01*
X130897863Y-90854627D01*
X130863516Y-90967853D01*
X130846343Y-91024467D01*
X130774975Y-91157986D01*
X130762678Y-91180991D01*
X130733348Y-91216729D01*
X130650086Y-91318186D01*
X130548629Y-91401448D01*
X130512891Y-91430778D01*
X130512889Y-91430779D01*
X130356367Y-91514443D01*
X130299753Y-91531616D01*
X130186527Y-91565963D01*
X130120343Y-91572481D01*
X130054160Y-91579000D01*
X129965640Y-91579000D01*
X129899457Y-91572481D01*
X129833273Y-91565963D01*
X129720047Y-91531616D01*
X129663433Y-91514443D01*
X129506911Y-91430779D01*
X129506909Y-91430778D01*
X129471171Y-91401448D01*
X129369714Y-91318186D01*
X129286452Y-91216729D01*
X129257122Y-91180991D01*
X129244825Y-91157986D01*
X129173457Y-91024467D01*
X129156284Y-90967853D01*
X129121937Y-90854627D01*
X129104541Y-90678000D01*
X129121937Y-90501373D01*
X129173457Y-90331534D01*
X129173457Y-90331533D01*
X129257121Y-90175011D01*
X129257122Y-90175009D01*
X129286452Y-90139271D01*
X129369714Y-90037814D01*
X129471171Y-89954552D01*
X129506909Y-89925222D01*
X129524813Y-89915652D01*
X129663433Y-89841557D01*
X129720047Y-89824384D01*
X129833273Y-89790037D01*
X129899457Y-89783519D01*
X129965640Y-89777000D01*
X130054160Y-89777000D01*
X130120343Y-89783519D01*
X130120343Y-89783519D01*
G37*
G36*
X118257850Y-88844743D02*
X118342922Y-88861665D01*
X118413335Y-88890831D01*
X118583328Y-88961244D01*
X118799692Y-89105814D01*
X118983686Y-89289808D01*
X119128256Y-89506172D01*
X119227835Y-89746579D01*
X119278600Y-90001791D01*
X119278600Y-90262009D01*
X119244757Y-90432150D01*
X119230988Y-90501373D01*
X119227835Y-90517221D01*
X119128256Y-90757628D01*
X118983686Y-90973992D01*
X118799692Y-91157986D01*
X118583328Y-91302556D01*
X118413335Y-91372969D01*
X118342922Y-91402135D01*
X118257850Y-91419057D01*
X118087709Y-91452900D01*
X117827491Y-91452900D01*
X117657350Y-91419057D01*
X117572278Y-91402135D01*
X117501865Y-91372969D01*
X117331872Y-91302556D01*
X117115508Y-91157986D01*
X116931514Y-90973992D01*
X116786944Y-90757628D01*
X116687365Y-90517221D01*
X116684213Y-90501373D01*
X116670443Y-90432150D01*
X116636600Y-90262009D01*
X116636600Y-90001791D01*
X116687365Y-89746579D01*
X116786944Y-89506172D01*
X116931514Y-89289808D01*
X117115508Y-89105814D01*
X117331872Y-88961244D01*
X117501865Y-88890831D01*
X117572278Y-88861665D01*
X117657350Y-88844743D01*
X117827491Y-88810900D01*
X118087709Y-88810900D01*
X118257850Y-88844743D01*
X118257850Y-88844743D01*
G37*
G36*
X123256221Y-86871202D02*
X123392622Y-86927701D01*
X123515379Y-87009725D01*
X123619775Y-87114121D01*
X123701799Y-87236878D01*
X123758298Y-87373279D01*
X123787100Y-87518081D01*
X123787100Y-87665719D01*
X123758298Y-87810521D01*
X123701799Y-87946922D01*
X123619775Y-88069679D01*
X123515379Y-88174075D01*
X123392622Y-88256099D01*
X123256221Y-88312598D01*
X123111419Y-88341400D01*
X122963781Y-88341400D01*
X122818979Y-88312598D01*
X122682578Y-88256099D01*
X122559821Y-88174075D01*
X122455425Y-88069679D01*
X122373401Y-87946922D01*
X122316902Y-87810521D01*
X122288100Y-87665719D01*
X122288100Y-87518081D01*
X122316902Y-87373279D01*
X122373401Y-87236878D01*
X122455425Y-87114121D01*
X122559821Y-87009725D01*
X122682578Y-86927701D01*
X122818979Y-86871202D01*
X122963781Y-86842400D01*
X123111419Y-86842400D01*
X123256221Y-86871202D01*
X123256221Y-86871202D01*
G37*
G36*
X123256221Y-84331202D02*
X123392622Y-84387701D01*
X123515379Y-84469725D01*
X123619775Y-84574121D01*
X123701799Y-84696878D01*
X123758298Y-84833279D01*
X123787100Y-84978081D01*
X123787100Y-85125719D01*
X123758298Y-85270521D01*
X123701799Y-85406922D01*
X123619775Y-85529679D01*
X123515379Y-85634075D01*
X123392622Y-85716099D01*
X123256221Y-85772598D01*
X123111419Y-85801400D01*
X122963781Y-85801400D01*
X122818979Y-85772598D01*
X122682578Y-85716099D01*
X122559821Y-85634075D01*
X122455425Y-85529679D01*
X122373401Y-85406922D01*
X122316902Y-85270521D01*
X122288100Y-85125719D01*
X122288100Y-84978081D01*
X122316902Y-84833279D01*
X122373401Y-84696878D01*
X122455425Y-84574121D01*
X122559821Y-84469725D01*
X122682578Y-84387701D01*
X122818979Y-84331202D01*
X122963781Y-84302400D01*
X123111419Y-84302400D01*
X123256221Y-84331202D01*
X123256221Y-84331202D01*
G37*
G36*
X118257850Y-78684743D02*
X118342922Y-78701665D01*
X118413335Y-78730831D01*
X118583328Y-78801244D01*
X118799692Y-78945814D01*
X118983686Y-79129808D01*
X119128256Y-79346172D01*
X119227835Y-79586579D01*
X119278600Y-79841791D01*
X119278600Y-80102009D01*
X119227835Y-80357221D01*
X119128256Y-80597628D01*
X118983686Y-80813992D01*
X118799692Y-80997986D01*
X118583328Y-81142556D01*
X118413335Y-81212969D01*
X118342922Y-81242135D01*
X118257850Y-81259057D01*
X118087709Y-81292900D01*
X117827491Y-81292900D01*
X117657350Y-81259057D01*
X117572278Y-81242135D01*
X117501865Y-81212969D01*
X117331872Y-81142556D01*
X117115508Y-80997986D01*
X116931514Y-80813992D01*
X116786944Y-80597628D01*
X116687365Y-80357221D01*
X116636600Y-80102009D01*
X116636600Y-79841791D01*
X116687365Y-79586579D01*
X116786944Y-79346172D01*
X116931514Y-79129808D01*
X117115508Y-78945814D01*
X117331872Y-78801244D01*
X117501865Y-78730831D01*
X117572278Y-78701665D01*
X117657350Y-78684743D01*
X117827491Y-78650900D01*
X118087709Y-78650900D01*
X118257850Y-78684743D01*
X118257850Y-78684743D01*
G37*
G36*
X133114431Y-76666083D02*
X133303118Y-76723321D01*
X133477017Y-76816271D01*
X133629439Y-76941361D01*
X133754529Y-77093783D01*
X133847479Y-77267681D01*
X133904717Y-77456368D01*
X133919200Y-77603424D01*
X133919200Y-78301775D01*
X133904717Y-78448831D01*
X133847479Y-78637518D01*
X133754529Y-78811417D01*
X133629439Y-78963839D01*
X133477017Y-79088929D01*
X133303119Y-79181879D01*
X133114432Y-79239117D01*
X132918200Y-79258443D01*
X132721969Y-79239117D01*
X132533282Y-79181879D01*
X132359384Y-79088929D01*
X132206962Y-78963839D01*
X132081872Y-78811417D01*
X131988922Y-78637519D01*
X131931683Y-78448832D01*
X131917200Y-78301776D01*
X131917200Y-77603425D01*
X131931683Y-77456369D01*
X131988921Y-77267682D01*
X132081871Y-77093783D01*
X132206961Y-76941361D01*
X132359383Y-76816271D01*
X132533281Y-76723321D01*
X132721968Y-76666083D01*
X132918200Y-76646757D01*
X133114431Y-76666083D01*
X133114431Y-76666083D01*
G37*
G36*
X138194431Y-76666083D02*
X138383118Y-76723321D01*
X138557017Y-76816271D01*
X138709439Y-76941361D01*
X138834529Y-77093783D01*
X138927479Y-77267681D01*
X138984717Y-77456368D01*
X138999200Y-77603424D01*
X138999200Y-78301775D01*
X138984717Y-78448831D01*
X138927479Y-78637518D01*
X138834529Y-78811417D01*
X138709439Y-78963839D01*
X138557017Y-79088929D01*
X138383119Y-79181879D01*
X138194432Y-79239117D01*
X137998200Y-79258443D01*
X137801969Y-79239117D01*
X137613282Y-79181879D01*
X137439384Y-79088929D01*
X137286962Y-78963839D01*
X137161872Y-78811417D01*
X137068922Y-78637519D01*
X137011683Y-78448832D01*
X136997200Y-78301776D01*
X136997200Y-77603425D01*
X137011683Y-77456369D01*
X137068921Y-77267682D01*
X137161871Y-77093783D01*
X137286961Y-76941361D01*
X137439383Y-76816271D01*
X137613281Y-76723321D01*
X137801968Y-76666083D01*
X137998200Y-76646757D01*
X138194431Y-76666083D01*
X138194431Y-76666083D01*
G37*
G36*
X135654431Y-76666083D02*
X135843118Y-76723321D01*
X136017017Y-76816271D01*
X136169439Y-76941361D01*
X136294529Y-77093783D01*
X136387479Y-77267681D01*
X136444717Y-77456368D01*
X136459200Y-77603424D01*
X136459200Y-78301775D01*
X136444717Y-78448831D01*
X136387479Y-78637518D01*
X136294529Y-78811417D01*
X136169439Y-78963839D01*
X136017017Y-79088929D01*
X135843119Y-79181879D01*
X135654432Y-79239117D01*
X135458200Y-79258443D01*
X135261969Y-79239117D01*
X135073282Y-79181879D01*
X134899384Y-79088929D01*
X134746962Y-78963839D01*
X134621872Y-78811417D01*
X134528922Y-78637519D01*
X134471683Y-78448832D01*
X134457200Y-78301776D01*
X134457200Y-77603425D01*
X134471683Y-77456369D01*
X134528921Y-77267682D01*
X134621871Y-77093783D01*
X134746961Y-76941361D01*
X134899383Y-76816271D01*
X135073281Y-76723321D01*
X135261968Y-76666083D01*
X135458200Y-76646757D01*
X135654431Y-76666083D01*
X135654431Y-76666083D01*
G37*
G36*
X154576500Y-78147900D02*
X151874500Y-78147900D01*
X151874500Y-75445900D01*
X154576500Y-75445900D01*
X154576500Y-78147900D01*
X154576500Y-78147900D01*
G37*
G36*
X125471865Y-73712722D02*
X125545422Y-73719967D01*
X125686986Y-73762910D01*
X125817452Y-73832646D01*
X125931806Y-73926494D01*
X126025654Y-74040848D01*
X126095390Y-74171314D01*
X126138333Y-74312878D01*
X126152833Y-74460100D01*
X126138333Y-74607322D01*
X126095390Y-74748886D01*
X126025654Y-74879352D01*
X125931806Y-74993706D01*
X125817452Y-75087554D01*
X125686986Y-75157290D01*
X125545422Y-75200233D01*
X125471865Y-75207478D01*
X125435088Y-75211100D01*
X125161312Y-75211100D01*
X125124535Y-75207478D01*
X125050978Y-75200233D01*
X124909414Y-75157290D01*
X124778948Y-75087554D01*
X124664594Y-74993706D01*
X124570746Y-74879352D01*
X124501010Y-74748886D01*
X124458067Y-74607322D01*
X124443567Y-74460100D01*
X124458067Y-74312878D01*
X124501010Y-74171314D01*
X124570746Y-74040848D01*
X124664594Y-73926494D01*
X124778948Y-73832646D01*
X124909414Y-73762910D01*
X125050978Y-73719967D01*
X125124535Y-73712722D01*
X125161312Y-73709100D01*
X125435088Y-73709100D01*
X125471865Y-73712722D01*
X125471865Y-73712722D01*
G37*
G36*
X125471865Y-71807722D02*
X125545422Y-71814967D01*
X125686986Y-71857910D01*
X125817452Y-71927646D01*
X125931806Y-72021494D01*
X126025654Y-72135848D01*
X126095390Y-72266314D01*
X126138333Y-72407878D01*
X126152833Y-72555100D01*
X126138333Y-72702322D01*
X126095390Y-72843886D01*
X126025654Y-72974352D01*
X125931806Y-73088706D01*
X125817452Y-73182554D01*
X125686986Y-73252290D01*
X125545422Y-73295233D01*
X125471865Y-73302478D01*
X125435088Y-73306100D01*
X125161312Y-73306100D01*
X125124535Y-73302478D01*
X125050978Y-73295233D01*
X124909414Y-73252290D01*
X124778948Y-73182554D01*
X124664594Y-73088706D01*
X124570746Y-72974352D01*
X124501010Y-72843886D01*
X124458067Y-72702322D01*
X124443567Y-72555100D01*
X124458067Y-72407878D01*
X124501010Y-72266314D01*
X124570746Y-72135848D01*
X124664594Y-72021494D01*
X124778948Y-71927646D01*
X124909414Y-71857910D01*
X125050978Y-71814967D01*
X125124535Y-71807722D01*
X125161312Y-71804100D01*
X125435088Y-71804100D01*
X125471865Y-71807722D01*
X125471865Y-71807722D01*
G37*
G36*
X114576267Y-70476959D02*
X114706772Y-70502918D01*
X114952639Y-70604759D01*
X115166279Y-70747510D01*
X115173915Y-70752612D01*
X115362088Y-70940785D01*
X115362090Y-70940788D01*
X115509941Y-71162061D01*
X115609670Y-71402829D01*
X115611782Y-71407929D01*
X115662686Y-71663837D01*
X115663700Y-71668938D01*
X115663700Y-71935062D01*
X115611782Y-72196072D01*
X115509941Y-72441939D01*
X115365498Y-72658112D01*
X115362088Y-72663215D01*
X115173915Y-72851388D01*
X115173912Y-72851390D01*
X114952639Y-72999241D01*
X114706772Y-73101082D01*
X114576267Y-73127041D01*
X114445763Y-73153000D01*
X114179637Y-73153000D01*
X114049133Y-73127041D01*
X113918628Y-73101082D01*
X113672761Y-72999241D01*
X113451488Y-72851390D01*
X113451485Y-72851388D01*
X113263312Y-72663215D01*
X113259902Y-72658112D01*
X113115459Y-72441939D01*
X113013618Y-72196072D01*
X112961700Y-71935062D01*
X112961700Y-71668938D01*
X112962715Y-71663837D01*
X113013618Y-71407929D01*
X113015730Y-71402829D01*
X113115459Y-71162061D01*
X113263310Y-70940788D01*
X113263312Y-70940785D01*
X113451485Y-70752612D01*
X113459121Y-70747510D01*
X113672761Y-70604759D01*
X113918628Y-70502918D01*
X114049133Y-70476959D01*
X114179637Y-70451000D01*
X114445763Y-70451000D01*
X114576267Y-70476959D01*
X114576267Y-70476959D01*
G37*
G36*
X153489067Y-70471859D02*
X153619572Y-70497818D01*
X153865439Y-70599659D01*
X154085964Y-70747010D01*
X154086715Y-70747512D01*
X154274888Y-70935685D01*
X154274890Y-70935688D01*
X154422741Y-71156961D01*
X154524582Y-71402828D01*
X154550541Y-71533333D01*
X154576500Y-71663837D01*
X154576500Y-71929963D01*
X154558293Y-72021494D01*
X154524582Y-72190972D01*
X154422741Y-72436839D01*
X154275390Y-72657364D01*
X154274888Y-72658115D01*
X154086715Y-72846288D01*
X154086712Y-72846290D01*
X153865439Y-72994141D01*
X153619572Y-73095982D01*
X153489067Y-73121941D01*
X153358563Y-73147900D01*
X153092437Y-73147900D01*
X152961933Y-73121941D01*
X152831428Y-73095982D01*
X152585561Y-72994141D01*
X152364288Y-72846290D01*
X152364285Y-72846288D01*
X152176112Y-72658115D01*
X152175610Y-72657364D01*
X152028259Y-72436839D01*
X151926418Y-72190972D01*
X151892707Y-72021494D01*
X151874500Y-71929963D01*
X151874500Y-71663837D01*
X151900459Y-71533333D01*
X151926418Y-71402828D01*
X152028259Y-71156961D01*
X152176110Y-70935688D01*
X152176112Y-70935685D01*
X152364285Y-70747512D01*
X152365036Y-70747010D01*
X152585561Y-70599659D01*
X152831428Y-70497818D01*
X152961933Y-70471859D01*
X153092437Y-70445900D01*
X153358563Y-70445900D01*
X153489067Y-70471859D01*
X153489067Y-70471859D01*
G37*
G36*
X125471865Y-69902722D02*
X125545422Y-69909967D01*
X125686986Y-69952910D01*
X125817452Y-70022646D01*
X125931806Y-70116494D01*
X126025654Y-70230848D01*
X126095390Y-70361314D01*
X126138333Y-70502878D01*
X126152833Y-70650100D01*
X126138333Y-70797322D01*
X126095390Y-70938886D01*
X126025654Y-71069352D01*
X125931806Y-71183706D01*
X125817452Y-71277554D01*
X125686986Y-71347290D01*
X125545422Y-71390233D01*
X125471865Y-71397478D01*
X125435088Y-71401100D01*
X125161312Y-71401100D01*
X125124535Y-71397478D01*
X125050978Y-71390233D01*
X124909414Y-71347290D01*
X124778948Y-71277554D01*
X124664594Y-71183706D01*
X124570746Y-71069352D01*
X124501010Y-70938886D01*
X124458067Y-70797322D01*
X124443567Y-70650100D01*
X124458067Y-70502878D01*
X124501010Y-70361314D01*
X124570746Y-70230848D01*
X124664594Y-70116494D01*
X124778948Y-70022646D01*
X124909414Y-69952910D01*
X125050978Y-69909967D01*
X125124535Y-69902722D01*
X125161312Y-69899100D01*
X125435088Y-69899100D01*
X125471865Y-69902722D01*
X125471865Y-69902722D01*
G37*
G36*
X125471865Y-67997722D02*
X125545422Y-68004967D01*
X125686986Y-68047910D01*
X125817452Y-68117646D01*
X125931806Y-68211494D01*
X126025654Y-68325848D01*
X126095390Y-68456314D01*
X126138333Y-68597878D01*
X126152833Y-68745100D01*
X126138333Y-68892322D01*
X126095390Y-69033886D01*
X126025654Y-69164352D01*
X125931806Y-69278706D01*
X125817452Y-69372554D01*
X125686986Y-69442290D01*
X125545422Y-69485233D01*
X125471865Y-69492478D01*
X125435088Y-69496100D01*
X125161312Y-69496100D01*
X125124535Y-69492478D01*
X125050978Y-69485233D01*
X124909414Y-69442290D01*
X124778948Y-69372554D01*
X124664594Y-69278706D01*
X124570746Y-69164352D01*
X124501010Y-69033886D01*
X124458067Y-68892322D01*
X124443567Y-68745100D01*
X124458067Y-68597878D01*
X124501010Y-68456314D01*
X124570746Y-68325848D01*
X124664594Y-68211494D01*
X124778948Y-68117646D01*
X124909414Y-68047910D01*
X125050978Y-68004967D01*
X125124535Y-67997722D01*
X125161312Y-67994100D01*
X125435088Y-67994100D01*
X125471865Y-67997722D01*
X125471865Y-67997722D01*
G37*
G36*
X115663700Y-68153000D02*
X112961700Y-68153000D01*
X112961700Y-65451000D01*
X115663700Y-65451000D01*
X115663700Y-68153000D01*
X115663700Y-68153000D01*
G37*
G36*
X138194431Y-63966083D02*
X138383118Y-64023321D01*
X138557017Y-64116271D01*
X138709439Y-64241361D01*
X138834529Y-64393783D01*
X138927479Y-64567681D01*
X138984717Y-64756368D01*
X138999200Y-64903424D01*
X138999200Y-65601775D01*
X138984717Y-65748831D01*
X138927479Y-65937518D01*
X138834529Y-66111417D01*
X138709439Y-66263839D01*
X138557017Y-66388929D01*
X138383119Y-66481879D01*
X138194432Y-66539117D01*
X137998200Y-66558443D01*
X137801969Y-66539117D01*
X137613282Y-66481879D01*
X137439384Y-66388929D01*
X137286962Y-66263839D01*
X137161872Y-66111417D01*
X137068922Y-65937519D01*
X137011683Y-65748832D01*
X136997200Y-65601776D01*
X136997200Y-64903425D01*
X137011683Y-64756369D01*
X137068921Y-64567682D01*
X137161871Y-64393783D01*
X137286961Y-64241361D01*
X137439383Y-64116271D01*
X137613281Y-64023321D01*
X137801968Y-63966083D01*
X137998200Y-63946757D01*
X138194431Y-63966083D01*
X138194431Y-63966083D01*
G37*
G36*
X135654431Y-63966083D02*
X135843118Y-64023321D01*
X136017017Y-64116271D01*
X136169439Y-64241361D01*
X136294529Y-64393783D01*
X136387479Y-64567681D01*
X136444717Y-64756368D01*
X136459200Y-64903424D01*
X136459200Y-65601775D01*
X136444717Y-65748831D01*
X136387479Y-65937518D01*
X136294529Y-66111417D01*
X136169439Y-66263839D01*
X136017017Y-66388929D01*
X135843119Y-66481879D01*
X135654432Y-66539117D01*
X135458200Y-66558443D01*
X135261969Y-66539117D01*
X135073282Y-66481879D01*
X134899384Y-66388929D01*
X134746962Y-66263839D01*
X134621872Y-66111417D01*
X134528922Y-65937519D01*
X134471683Y-65748832D01*
X134457200Y-65601776D01*
X134457200Y-64903425D01*
X134471683Y-64756369D01*
X134528921Y-64567682D01*
X134621871Y-64393783D01*
X134746961Y-64241361D01*
X134899383Y-64116271D01*
X135073281Y-64023321D01*
X135261968Y-63966083D01*
X135458200Y-63946757D01*
X135654431Y-63966083D01*
X135654431Y-63966083D01*
G37*
G36*
X133793115Y-63955200D02*
X133822354Y-63964070D01*
X133849314Y-63978480D01*
X133872935Y-63997865D01*
X133892320Y-64021486D01*
X133906730Y-64048446D01*
X133915600Y-64077685D01*
X133919200Y-64114240D01*
X133919200Y-66390960D01*
X133915600Y-66427515D01*
X133906730Y-66456754D01*
X133892320Y-66483714D01*
X133872935Y-66507335D01*
X133849314Y-66526720D01*
X133822354Y-66541130D01*
X133793115Y-66550000D01*
X133756560Y-66553600D01*
X132079840Y-66553600D01*
X132043285Y-66550000D01*
X132014046Y-66541130D01*
X131987086Y-66526720D01*
X131963465Y-66507335D01*
X131944080Y-66483714D01*
X131929670Y-66456754D01*
X131920800Y-66427515D01*
X131917200Y-66390960D01*
X131917200Y-64114240D01*
X131920800Y-64077685D01*
X131929670Y-64048446D01*
X131944080Y-64021486D01*
X131963465Y-63997865D01*
X131987086Y-63978480D01*
X132014046Y-63964070D01*
X132043285Y-63955200D01*
X132079840Y-63951600D01*
X133756560Y-63951600D01*
X133793115Y-63955200D01*
X133793115Y-63955200D01*
G37*
M02*
