G04 #@! TF.GenerationSoftware,KiCad,Pcbnew,(5.0.2)-1*
G04 #@! TF.CreationDate,2019-03-26T15:17:44-05:00*
G04 #@! TF.ProjectId,currentsense,63757272-656e-4747-9365-6e73652e6b69,rev?*
G04 #@! TF.SameCoordinates,Original*
G04 #@! TF.FileFunction,Legend,Top*
G04 #@! TF.FilePolarity,Positive*
%FSLAX46Y46*%
G04 Gerber Fmt 4.6, Leading zero omitted, Abs format (unit mm)*
G04 Created by KiCad (PCBNEW (5.0.2)-1) date 3/26/2019 3:17:44 PM*
%MOMM*%
%LPD*%
G01*
G04 APERTURE LIST*
%ADD10C,0.200000*%
%ADD11C,0.152400*%
%ADD12C,0.120000*%
%ADD13C,0.150000*%
G04 APERTURE END LIST*
D10*
X158470600Y-57480200D02*
X108597700Y-57480200D01*
X158483300Y-93091000D02*
X158483300Y-57467500D01*
X108597700Y-93091000D02*
X158483300Y-93091000D01*
X108597700Y-57467500D02*
X108597700Y-93091000D01*
D11*
G04 #@! TO.C,J2*
X123164600Y-84028510D02*
X123164600Y-77546200D01*
X109194600Y-92557600D02*
X123164600Y-92557600D01*
X109194600Y-77546200D02*
X109194600Y-92557600D01*
X123164600Y-77546200D02*
X109194600Y-77546200D01*
X123164600Y-92557600D02*
X123164600Y-88379300D01*
X109448600Y-90716100D02*
X109448600Y-79387700D01*
X124061471Y-85174965D02*
X124307600Y-85051900D01*
X124061471Y-84928835D02*
X124307600Y-85051900D01*
D12*
G04 #@! TO.C,R3*
X133919752Y-62002600D02*
X133397248Y-62002600D01*
X133919752Y-63422600D02*
X133397248Y-63422600D01*
G04 #@! TO.C,R4*
X137633452Y-81202600D02*
X137110948Y-81202600D01*
X137633452Y-79782600D02*
X137110948Y-79782600D01*
G04 #@! TO.C,R5*
X133792752Y-79782600D02*
X133270248Y-79782600D01*
X133792752Y-81202600D02*
X133270248Y-81202600D01*
G04 #@! TO.C,R6*
X137704352Y-63422600D02*
X137181848Y-63422600D01*
X137704352Y-62002600D02*
X137181848Y-62002600D01*
G04 #@! TO.C,J4*
X109412700Y-64002000D02*
X109412700Y-64502000D01*
X110152700Y-64002000D02*
X109412700Y-64002000D01*
X113289700Y-70575000D02*
X113243700Y-70528000D01*
X115587700Y-72872000D02*
X115551700Y-72837000D01*
X113073700Y-70768000D02*
X113038700Y-70733000D01*
X115381700Y-73077000D02*
X115335700Y-73030000D01*
X119573700Y-74362000D02*
X109652700Y-74362000D01*
X119573700Y-64242000D02*
X109652700Y-64242000D01*
X109652700Y-64242000D02*
X109652700Y-74362000D01*
X119573700Y-64242000D02*
X119573700Y-74362000D01*
X116613700Y-64242000D02*
X116613700Y-74362000D01*
X111712700Y-64242000D02*
X111712700Y-74362000D01*
X110212700Y-64242000D02*
X110212700Y-74362000D01*
X115992700Y-71802000D02*
G75*
G03X115992700Y-71802000I-1680000J0D01*
G01*
X112632447Y-66830805D02*
G75*
G02X112777700Y-66118000I1680253J28805D01*
G01*
X113629658Y-65266574D02*
G75*
G02X114996700Y-65267000I683042J-1535426D01*
G01*
X115848126Y-66118958D02*
G75*
G02X115847700Y-67486000I-1535426J-683042D01*
G01*
X114995742Y-68337426D02*
G75*
G02X113628700Y-68337000I-683042J1535426D01*
G01*
X112777944Y-67485318D02*
G75*
G02X112632700Y-66802000I1534756J683318D01*
G01*
G04 #@! TO.C,U1*
X124468200Y-66492600D02*
X131698200Y-66492600D01*
X138838200Y-76712600D02*
X139568200Y-76712600D01*
X123348200Y-76012600D02*
X131348200Y-76012600D01*
X145768200Y-76012600D02*
X145768200Y-67602600D01*
X123348200Y-76012600D02*
X123348200Y-67612600D01*
X131348200Y-76712600D02*
X131348200Y-76012600D01*
X139568200Y-76712600D02*
X139568200Y-76012600D01*
X123348200Y-67602600D02*
G75*
G02X124458200Y-66492600I1110000J0D01*
G01*
X145768200Y-67602600D02*
G75*
G03X144658200Y-66492600I-1110000J0D01*
G01*
X138848200Y-66492600D02*
X144658200Y-66492600D01*
X131348200Y-76712600D02*
X132068200Y-76712600D01*
X139568200Y-76012600D02*
X145768200Y-76012600D01*
G04 #@! TO.C,R2*
X121159200Y-72636748D02*
X121159200Y-73159252D01*
X122579200Y-72636748D02*
X122579200Y-73159252D01*
G04 #@! TO.C,R1*
X121171900Y-69238652D02*
X121171900Y-68716148D01*
X122591900Y-69238652D02*
X122591900Y-68716148D01*
G04 #@! TO.C,J3*
X154760256Y-76113582D02*
G75*
G02X154905500Y-76796900I-1534756J-683318D01*
G01*
X152542458Y-75261474D02*
G75*
G02X153909500Y-75261900I683042J-1535426D01*
G01*
X151690074Y-77479942D02*
G75*
G02X151690500Y-76112900I1535426J683042D01*
G01*
X153908542Y-78332326D02*
G75*
G02X152541500Y-78331900I-683042J1535426D01*
G01*
X154905753Y-76768095D02*
G75*
G02X154760500Y-77480900I-1680253J-28805D01*
G01*
X154905500Y-71796900D02*
G75*
G03X154905500Y-71796900I-1680000J0D01*
G01*
X157325500Y-79356900D02*
X157325500Y-69236900D01*
X155825500Y-79356900D02*
X155825500Y-69236900D01*
X150924500Y-79356900D02*
X150924500Y-69236900D01*
X147964500Y-79356900D02*
X147964500Y-69236900D01*
X157885500Y-79356900D02*
X157885500Y-69236900D01*
X147964500Y-79356900D02*
X157885500Y-79356900D01*
X147964500Y-69236900D02*
X157885500Y-69236900D01*
X152156500Y-70521900D02*
X152202500Y-70568900D01*
X154464500Y-72830900D02*
X154499500Y-72865900D01*
X151950500Y-70726900D02*
X151986500Y-70761900D01*
X154248500Y-73023900D02*
X154294500Y-73070900D01*
X157385500Y-79596900D02*
X158125500Y-79596900D01*
X158125500Y-79596900D02*
X158125500Y-79096900D01*
G04 #@! TO.C,J1*
X126139900Y-89348000D02*
X126139900Y-92008000D01*
X131279900Y-89348000D02*
X126139900Y-89348000D01*
X131279900Y-92008000D02*
X126139900Y-92008000D01*
X131279900Y-89348000D02*
X131279900Y-92008000D01*
X132549900Y-89348000D02*
X133879900Y-89348000D01*
X133879900Y-89348000D02*
X133879900Y-90678000D01*
G04 #@! TD*
G04 #@! TO.C,J2*
D13*
X125626880Y-84801033D02*
X126341166Y-84801033D01*
X126484023Y-84848652D01*
X126579261Y-84943890D01*
X126626880Y-85086747D01*
X126626880Y-85181985D01*
X125722119Y-84372461D02*
X125674500Y-84324842D01*
X125626880Y-84229604D01*
X125626880Y-83991509D01*
X125674500Y-83896271D01*
X125722119Y-83848652D01*
X125817357Y-83801033D01*
X125912595Y-83801033D01*
X126055452Y-83848652D01*
X126626880Y-84420080D01*
X126626880Y-83801033D01*
G04 #@! TO.C,R3*
X133475433Y-61590180D02*
X133142100Y-61113990D01*
X132904004Y-61590180D02*
X132904004Y-60590180D01*
X133284957Y-60590180D01*
X133380195Y-60637800D01*
X133427814Y-60685419D01*
X133475433Y-60780657D01*
X133475433Y-60923514D01*
X133427814Y-61018752D01*
X133380195Y-61066371D01*
X133284957Y-61113990D01*
X132904004Y-61113990D01*
X133808766Y-60590180D02*
X134427814Y-60590180D01*
X134094480Y-60971133D01*
X134237338Y-60971133D01*
X134332576Y-61018752D01*
X134380195Y-61066371D01*
X134427814Y-61161609D01*
X134427814Y-61399704D01*
X134380195Y-61494942D01*
X134332576Y-61542561D01*
X134237338Y-61590180D01*
X133951623Y-61590180D01*
X133856385Y-61542561D01*
X133808766Y-61494942D01*
G04 #@! TO.C,R4*
X137205533Y-82594980D02*
X136872200Y-82118790D01*
X136634104Y-82594980D02*
X136634104Y-81594980D01*
X137015057Y-81594980D01*
X137110295Y-81642600D01*
X137157914Y-81690219D01*
X137205533Y-81785457D01*
X137205533Y-81928314D01*
X137157914Y-82023552D01*
X137110295Y-82071171D01*
X137015057Y-82118790D01*
X136634104Y-82118790D01*
X138062676Y-81928314D02*
X138062676Y-82594980D01*
X137824580Y-81547361D02*
X137586485Y-82261647D01*
X138205533Y-82261647D01*
G04 #@! TO.C,R5*
X133364833Y-82594980D02*
X133031500Y-82118790D01*
X132793404Y-82594980D02*
X132793404Y-81594980D01*
X133174357Y-81594980D01*
X133269595Y-81642600D01*
X133317214Y-81690219D01*
X133364833Y-81785457D01*
X133364833Y-81928314D01*
X133317214Y-82023552D01*
X133269595Y-82071171D01*
X133174357Y-82118790D01*
X132793404Y-82118790D01*
X134269595Y-81594980D02*
X133793404Y-81594980D01*
X133745785Y-82071171D01*
X133793404Y-82023552D01*
X133888642Y-81975933D01*
X134126738Y-81975933D01*
X134221976Y-82023552D01*
X134269595Y-82071171D01*
X134317214Y-82166409D01*
X134317214Y-82404504D01*
X134269595Y-82499742D01*
X134221976Y-82547361D01*
X134126738Y-82594980D01*
X133888642Y-82594980D01*
X133793404Y-82547361D01*
X133745785Y-82499742D01*
G04 #@! TO.C,R6*
X137425133Y-61513980D02*
X137091800Y-61037790D01*
X136853704Y-61513980D02*
X136853704Y-60513980D01*
X137234657Y-60513980D01*
X137329895Y-60561600D01*
X137377514Y-60609219D01*
X137425133Y-60704457D01*
X137425133Y-60847314D01*
X137377514Y-60942552D01*
X137329895Y-60990171D01*
X137234657Y-61037790D01*
X136853704Y-61037790D01*
X138282276Y-60513980D02*
X138091800Y-60513980D01*
X137996561Y-60561600D01*
X137948942Y-60609219D01*
X137853704Y-60752076D01*
X137806085Y-60942552D01*
X137806085Y-61323504D01*
X137853704Y-61418742D01*
X137901323Y-61466361D01*
X137996561Y-61513980D01*
X138187038Y-61513980D01*
X138282276Y-61466361D01*
X138329895Y-61418742D01*
X138377514Y-61323504D01*
X138377514Y-61085409D01*
X138329895Y-60990171D01*
X138282276Y-60942552D01*
X138187038Y-60894933D01*
X137996561Y-60894933D01*
X137901323Y-60942552D01*
X137853704Y-60990171D01*
X137806085Y-61085409D01*
G04 #@! TO.C,J4*
X114093666Y-62469780D02*
X114093666Y-63184066D01*
X114046047Y-63326923D01*
X113950809Y-63422161D01*
X113807952Y-63469780D01*
X113712714Y-63469780D01*
X114998428Y-62803114D02*
X114998428Y-63469780D01*
X114760333Y-62422161D02*
X114522238Y-63136447D01*
X115141285Y-63136447D01*
G04 #@! TO.C,U1*
X127156295Y-64704980D02*
X127156295Y-65514504D01*
X127203914Y-65609742D01*
X127251533Y-65657361D01*
X127346771Y-65704980D01*
X127537247Y-65704980D01*
X127632485Y-65657361D01*
X127680104Y-65609742D01*
X127727723Y-65514504D01*
X127727723Y-64704980D01*
X128727723Y-65704980D02*
X128156295Y-65704980D01*
X128442009Y-65704980D02*
X128442009Y-64704980D01*
X128346771Y-64847838D01*
X128251533Y-64943076D01*
X128156295Y-64990695D01*
G04 #@! TO.C,R2*
X122258080Y-75905766D02*
X121781890Y-76239100D01*
X122258080Y-76477195D02*
X121258080Y-76477195D01*
X121258080Y-76096242D01*
X121305700Y-76001004D01*
X121353319Y-75953385D01*
X121448557Y-75905766D01*
X121591414Y-75905766D01*
X121686652Y-75953385D01*
X121734271Y-76001004D01*
X121781890Y-76096242D01*
X121781890Y-76477195D01*
X121353319Y-75524814D02*
X121305700Y-75477195D01*
X121258080Y-75381957D01*
X121258080Y-75143861D01*
X121305700Y-75048623D01*
X121353319Y-75001004D01*
X121448557Y-74953385D01*
X121543795Y-74953385D01*
X121686652Y-75001004D01*
X122258080Y-75572433D01*
X122258080Y-74953385D01*
G04 #@! TO.C,R1*
X122270780Y-66206666D02*
X121794590Y-66540000D01*
X122270780Y-66778095D02*
X121270780Y-66778095D01*
X121270780Y-66397142D01*
X121318400Y-66301904D01*
X121366019Y-66254285D01*
X121461257Y-66206666D01*
X121604114Y-66206666D01*
X121699352Y-66254285D01*
X121746971Y-66301904D01*
X121794590Y-66397142D01*
X121794590Y-66778095D01*
X122270780Y-65254285D02*
X122270780Y-65825714D01*
X122270780Y-65540000D02*
X121270780Y-65540000D01*
X121413638Y-65635238D01*
X121508876Y-65730476D01*
X121556495Y-65825714D01*
G04 #@! TO.C,J3*
X152828666Y-80021180D02*
X152828666Y-80735466D01*
X152781047Y-80878323D01*
X152685809Y-80973561D01*
X152542952Y-81021180D01*
X152447714Y-81021180D01*
X153209619Y-80021180D02*
X153828666Y-80021180D01*
X153495333Y-80402133D01*
X153638190Y-80402133D01*
X153733428Y-80449752D01*
X153781047Y-80497371D01*
X153828666Y-80592609D01*
X153828666Y-80830704D01*
X153781047Y-80925942D01*
X153733428Y-80973561D01*
X153638190Y-81021180D01*
X153352476Y-81021180D01*
X153257238Y-80973561D01*
X153209619Y-80925942D01*
G04 #@! TO.C,J1*
X129701966Y-87882480D02*
X129701966Y-88596766D01*
X129654347Y-88739623D01*
X129559109Y-88834861D01*
X129416252Y-88882480D01*
X129321014Y-88882480D01*
X130701966Y-88882480D02*
X130130538Y-88882480D01*
X130416252Y-88882480D02*
X130416252Y-87882480D01*
X130321014Y-88025338D01*
X130225776Y-88120576D01*
X130130538Y-88168195D01*
G04 #@! TD*
M02*
