G04 #@! TF.GenerationSoftware,KiCad,Pcbnew,(5.0.2)-1*
G04 #@! TF.CreationDate,2019-03-26T15:17:44-05:00*
G04 #@! TF.ProjectId,currentsense,63757272-656e-4747-9365-6e73652e6b69,rev?*
G04 #@! TF.SameCoordinates,Original*
G04 #@! TF.FileFunction,Paste,Top*
G04 #@! TF.FilePolarity,Positive*
%FSLAX46Y46*%
G04 Gerber Fmt 4.6, Leading zero omitted, Abs format (unit mm)*
G04 Created by KiCad (PCBNEW (5.0.2)-1) date 3/26/2019 3:17:44 PM*
%MOMM*%
%LPD*%
G01*
G04 APERTURE LIST*
%ADD10C,0.200000*%
%ADD11C,0.100000*%
%ADD12C,1.150000*%
G04 APERTURE END LIST*
D10*
X158470600Y-57480200D02*
X108597700Y-57480200D01*
X158483300Y-93091000D02*
X158483300Y-57467500D01*
X108597700Y-93091000D02*
X158483300Y-93091000D01*
X108597700Y-57467500D02*
X108597700Y-93091000D01*
D11*
G04 #@! TO.C,R3*
G36*
X132983005Y-62013804D02*
X133007273Y-62017404D01*
X133031072Y-62023365D01*
X133054171Y-62031630D01*
X133076350Y-62042120D01*
X133097393Y-62054732D01*
X133117099Y-62069347D01*
X133135277Y-62085823D01*
X133151753Y-62104001D01*
X133166368Y-62123707D01*
X133178980Y-62144750D01*
X133189470Y-62166929D01*
X133197735Y-62190028D01*
X133203696Y-62213827D01*
X133207296Y-62238095D01*
X133208500Y-62262599D01*
X133208500Y-63162601D01*
X133207296Y-63187105D01*
X133203696Y-63211373D01*
X133197735Y-63235172D01*
X133189470Y-63258271D01*
X133178980Y-63280450D01*
X133166368Y-63301493D01*
X133151753Y-63321199D01*
X133135277Y-63339377D01*
X133117099Y-63355853D01*
X133097393Y-63370468D01*
X133076350Y-63383080D01*
X133054171Y-63393570D01*
X133031072Y-63401835D01*
X133007273Y-63407796D01*
X132983005Y-63411396D01*
X132958501Y-63412600D01*
X132308499Y-63412600D01*
X132283995Y-63411396D01*
X132259727Y-63407796D01*
X132235928Y-63401835D01*
X132212829Y-63393570D01*
X132190650Y-63383080D01*
X132169607Y-63370468D01*
X132149901Y-63355853D01*
X132131723Y-63339377D01*
X132115247Y-63321199D01*
X132100632Y-63301493D01*
X132088020Y-63280450D01*
X132077530Y-63258271D01*
X132069265Y-63235172D01*
X132063304Y-63211373D01*
X132059704Y-63187105D01*
X132058500Y-63162601D01*
X132058500Y-62262599D01*
X132059704Y-62238095D01*
X132063304Y-62213827D01*
X132069265Y-62190028D01*
X132077530Y-62166929D01*
X132088020Y-62144750D01*
X132100632Y-62123707D01*
X132115247Y-62104001D01*
X132131723Y-62085823D01*
X132149901Y-62069347D01*
X132169607Y-62054732D01*
X132190650Y-62042120D01*
X132212829Y-62031630D01*
X132235928Y-62023365D01*
X132259727Y-62017404D01*
X132283995Y-62013804D01*
X132308499Y-62012600D01*
X132958501Y-62012600D01*
X132983005Y-62013804D01*
X132983005Y-62013804D01*
G37*
D12*
X132633500Y-62712600D03*
D11*
G36*
X135033005Y-62013804D02*
X135057273Y-62017404D01*
X135081072Y-62023365D01*
X135104171Y-62031630D01*
X135126350Y-62042120D01*
X135147393Y-62054732D01*
X135167099Y-62069347D01*
X135185277Y-62085823D01*
X135201753Y-62104001D01*
X135216368Y-62123707D01*
X135228980Y-62144750D01*
X135239470Y-62166929D01*
X135247735Y-62190028D01*
X135253696Y-62213827D01*
X135257296Y-62238095D01*
X135258500Y-62262599D01*
X135258500Y-63162601D01*
X135257296Y-63187105D01*
X135253696Y-63211373D01*
X135247735Y-63235172D01*
X135239470Y-63258271D01*
X135228980Y-63280450D01*
X135216368Y-63301493D01*
X135201753Y-63321199D01*
X135185277Y-63339377D01*
X135167099Y-63355853D01*
X135147393Y-63370468D01*
X135126350Y-63383080D01*
X135104171Y-63393570D01*
X135081072Y-63401835D01*
X135057273Y-63407796D01*
X135033005Y-63411396D01*
X135008501Y-63412600D01*
X134358499Y-63412600D01*
X134333995Y-63411396D01*
X134309727Y-63407796D01*
X134285928Y-63401835D01*
X134262829Y-63393570D01*
X134240650Y-63383080D01*
X134219607Y-63370468D01*
X134199901Y-63355853D01*
X134181723Y-63339377D01*
X134165247Y-63321199D01*
X134150632Y-63301493D01*
X134138020Y-63280450D01*
X134127530Y-63258271D01*
X134119265Y-63235172D01*
X134113304Y-63211373D01*
X134109704Y-63187105D01*
X134108500Y-63162601D01*
X134108500Y-62262599D01*
X134109704Y-62238095D01*
X134113304Y-62213827D01*
X134119265Y-62190028D01*
X134127530Y-62166929D01*
X134138020Y-62144750D01*
X134150632Y-62123707D01*
X134165247Y-62104001D01*
X134181723Y-62085823D01*
X134199901Y-62069347D01*
X134219607Y-62054732D01*
X134240650Y-62042120D01*
X134262829Y-62031630D01*
X134285928Y-62023365D01*
X134309727Y-62017404D01*
X134333995Y-62013804D01*
X134358499Y-62012600D01*
X135008501Y-62012600D01*
X135033005Y-62013804D01*
X135033005Y-62013804D01*
G37*
D12*
X134683500Y-62712600D03*
G04 #@! TD*
D11*
G04 #@! TO.C,R4*
G36*
X138746705Y-79793804D02*
X138770973Y-79797404D01*
X138794772Y-79803365D01*
X138817871Y-79811630D01*
X138840050Y-79822120D01*
X138861093Y-79834732D01*
X138880799Y-79849347D01*
X138898977Y-79865823D01*
X138915453Y-79884001D01*
X138930068Y-79903707D01*
X138942680Y-79924750D01*
X138953170Y-79946929D01*
X138961435Y-79970028D01*
X138967396Y-79993827D01*
X138970996Y-80018095D01*
X138972200Y-80042599D01*
X138972200Y-80942601D01*
X138970996Y-80967105D01*
X138967396Y-80991373D01*
X138961435Y-81015172D01*
X138953170Y-81038271D01*
X138942680Y-81060450D01*
X138930068Y-81081493D01*
X138915453Y-81101199D01*
X138898977Y-81119377D01*
X138880799Y-81135853D01*
X138861093Y-81150468D01*
X138840050Y-81163080D01*
X138817871Y-81173570D01*
X138794772Y-81181835D01*
X138770973Y-81187796D01*
X138746705Y-81191396D01*
X138722201Y-81192600D01*
X138072199Y-81192600D01*
X138047695Y-81191396D01*
X138023427Y-81187796D01*
X137999628Y-81181835D01*
X137976529Y-81173570D01*
X137954350Y-81163080D01*
X137933307Y-81150468D01*
X137913601Y-81135853D01*
X137895423Y-81119377D01*
X137878947Y-81101199D01*
X137864332Y-81081493D01*
X137851720Y-81060450D01*
X137841230Y-81038271D01*
X137832965Y-81015172D01*
X137827004Y-80991373D01*
X137823404Y-80967105D01*
X137822200Y-80942601D01*
X137822200Y-80042599D01*
X137823404Y-80018095D01*
X137827004Y-79993827D01*
X137832965Y-79970028D01*
X137841230Y-79946929D01*
X137851720Y-79924750D01*
X137864332Y-79903707D01*
X137878947Y-79884001D01*
X137895423Y-79865823D01*
X137913601Y-79849347D01*
X137933307Y-79834732D01*
X137954350Y-79822120D01*
X137976529Y-79811630D01*
X137999628Y-79803365D01*
X138023427Y-79797404D01*
X138047695Y-79793804D01*
X138072199Y-79792600D01*
X138722201Y-79792600D01*
X138746705Y-79793804D01*
X138746705Y-79793804D01*
G37*
D12*
X138397200Y-80492600D03*
D11*
G36*
X136696705Y-79793804D02*
X136720973Y-79797404D01*
X136744772Y-79803365D01*
X136767871Y-79811630D01*
X136790050Y-79822120D01*
X136811093Y-79834732D01*
X136830799Y-79849347D01*
X136848977Y-79865823D01*
X136865453Y-79884001D01*
X136880068Y-79903707D01*
X136892680Y-79924750D01*
X136903170Y-79946929D01*
X136911435Y-79970028D01*
X136917396Y-79993827D01*
X136920996Y-80018095D01*
X136922200Y-80042599D01*
X136922200Y-80942601D01*
X136920996Y-80967105D01*
X136917396Y-80991373D01*
X136911435Y-81015172D01*
X136903170Y-81038271D01*
X136892680Y-81060450D01*
X136880068Y-81081493D01*
X136865453Y-81101199D01*
X136848977Y-81119377D01*
X136830799Y-81135853D01*
X136811093Y-81150468D01*
X136790050Y-81163080D01*
X136767871Y-81173570D01*
X136744772Y-81181835D01*
X136720973Y-81187796D01*
X136696705Y-81191396D01*
X136672201Y-81192600D01*
X136022199Y-81192600D01*
X135997695Y-81191396D01*
X135973427Y-81187796D01*
X135949628Y-81181835D01*
X135926529Y-81173570D01*
X135904350Y-81163080D01*
X135883307Y-81150468D01*
X135863601Y-81135853D01*
X135845423Y-81119377D01*
X135828947Y-81101199D01*
X135814332Y-81081493D01*
X135801720Y-81060450D01*
X135791230Y-81038271D01*
X135782965Y-81015172D01*
X135777004Y-80991373D01*
X135773404Y-80967105D01*
X135772200Y-80942601D01*
X135772200Y-80042599D01*
X135773404Y-80018095D01*
X135777004Y-79993827D01*
X135782965Y-79970028D01*
X135791230Y-79946929D01*
X135801720Y-79924750D01*
X135814332Y-79903707D01*
X135828947Y-79884001D01*
X135845423Y-79865823D01*
X135863601Y-79849347D01*
X135883307Y-79834732D01*
X135904350Y-79822120D01*
X135926529Y-79811630D01*
X135949628Y-79803365D01*
X135973427Y-79797404D01*
X135997695Y-79793804D01*
X136022199Y-79792600D01*
X136672201Y-79792600D01*
X136696705Y-79793804D01*
X136696705Y-79793804D01*
G37*
D12*
X136347200Y-80492600D03*
G04 #@! TD*
D11*
G04 #@! TO.C,R5*
G36*
X132856005Y-79793804D02*
X132880273Y-79797404D01*
X132904072Y-79803365D01*
X132927171Y-79811630D01*
X132949350Y-79822120D01*
X132970393Y-79834732D01*
X132990099Y-79849347D01*
X133008277Y-79865823D01*
X133024753Y-79884001D01*
X133039368Y-79903707D01*
X133051980Y-79924750D01*
X133062470Y-79946929D01*
X133070735Y-79970028D01*
X133076696Y-79993827D01*
X133080296Y-80018095D01*
X133081500Y-80042599D01*
X133081500Y-80942601D01*
X133080296Y-80967105D01*
X133076696Y-80991373D01*
X133070735Y-81015172D01*
X133062470Y-81038271D01*
X133051980Y-81060450D01*
X133039368Y-81081493D01*
X133024753Y-81101199D01*
X133008277Y-81119377D01*
X132990099Y-81135853D01*
X132970393Y-81150468D01*
X132949350Y-81163080D01*
X132927171Y-81173570D01*
X132904072Y-81181835D01*
X132880273Y-81187796D01*
X132856005Y-81191396D01*
X132831501Y-81192600D01*
X132181499Y-81192600D01*
X132156995Y-81191396D01*
X132132727Y-81187796D01*
X132108928Y-81181835D01*
X132085829Y-81173570D01*
X132063650Y-81163080D01*
X132042607Y-81150468D01*
X132022901Y-81135853D01*
X132004723Y-81119377D01*
X131988247Y-81101199D01*
X131973632Y-81081493D01*
X131961020Y-81060450D01*
X131950530Y-81038271D01*
X131942265Y-81015172D01*
X131936304Y-80991373D01*
X131932704Y-80967105D01*
X131931500Y-80942601D01*
X131931500Y-80042599D01*
X131932704Y-80018095D01*
X131936304Y-79993827D01*
X131942265Y-79970028D01*
X131950530Y-79946929D01*
X131961020Y-79924750D01*
X131973632Y-79903707D01*
X131988247Y-79884001D01*
X132004723Y-79865823D01*
X132022901Y-79849347D01*
X132042607Y-79834732D01*
X132063650Y-79822120D01*
X132085829Y-79811630D01*
X132108928Y-79803365D01*
X132132727Y-79797404D01*
X132156995Y-79793804D01*
X132181499Y-79792600D01*
X132831501Y-79792600D01*
X132856005Y-79793804D01*
X132856005Y-79793804D01*
G37*
D12*
X132506500Y-80492600D03*
D11*
G36*
X134906005Y-79793804D02*
X134930273Y-79797404D01*
X134954072Y-79803365D01*
X134977171Y-79811630D01*
X134999350Y-79822120D01*
X135020393Y-79834732D01*
X135040099Y-79849347D01*
X135058277Y-79865823D01*
X135074753Y-79884001D01*
X135089368Y-79903707D01*
X135101980Y-79924750D01*
X135112470Y-79946929D01*
X135120735Y-79970028D01*
X135126696Y-79993827D01*
X135130296Y-80018095D01*
X135131500Y-80042599D01*
X135131500Y-80942601D01*
X135130296Y-80967105D01*
X135126696Y-80991373D01*
X135120735Y-81015172D01*
X135112470Y-81038271D01*
X135101980Y-81060450D01*
X135089368Y-81081493D01*
X135074753Y-81101199D01*
X135058277Y-81119377D01*
X135040099Y-81135853D01*
X135020393Y-81150468D01*
X134999350Y-81163080D01*
X134977171Y-81173570D01*
X134954072Y-81181835D01*
X134930273Y-81187796D01*
X134906005Y-81191396D01*
X134881501Y-81192600D01*
X134231499Y-81192600D01*
X134206995Y-81191396D01*
X134182727Y-81187796D01*
X134158928Y-81181835D01*
X134135829Y-81173570D01*
X134113650Y-81163080D01*
X134092607Y-81150468D01*
X134072901Y-81135853D01*
X134054723Y-81119377D01*
X134038247Y-81101199D01*
X134023632Y-81081493D01*
X134011020Y-81060450D01*
X134000530Y-81038271D01*
X133992265Y-81015172D01*
X133986304Y-80991373D01*
X133982704Y-80967105D01*
X133981500Y-80942601D01*
X133981500Y-80042599D01*
X133982704Y-80018095D01*
X133986304Y-79993827D01*
X133992265Y-79970028D01*
X134000530Y-79946929D01*
X134011020Y-79924750D01*
X134023632Y-79903707D01*
X134038247Y-79884001D01*
X134054723Y-79865823D01*
X134072901Y-79849347D01*
X134092607Y-79834732D01*
X134113650Y-79822120D01*
X134135829Y-79811630D01*
X134158928Y-79803365D01*
X134182727Y-79797404D01*
X134206995Y-79793804D01*
X134231499Y-79792600D01*
X134881501Y-79792600D01*
X134906005Y-79793804D01*
X134906005Y-79793804D01*
G37*
D12*
X134556500Y-80492600D03*
G04 #@! TD*
D11*
G04 #@! TO.C,R6*
G36*
X138817605Y-62013804D02*
X138841873Y-62017404D01*
X138865672Y-62023365D01*
X138888771Y-62031630D01*
X138910950Y-62042120D01*
X138931993Y-62054732D01*
X138951699Y-62069347D01*
X138969877Y-62085823D01*
X138986353Y-62104001D01*
X139000968Y-62123707D01*
X139013580Y-62144750D01*
X139024070Y-62166929D01*
X139032335Y-62190028D01*
X139038296Y-62213827D01*
X139041896Y-62238095D01*
X139043100Y-62262599D01*
X139043100Y-63162601D01*
X139041896Y-63187105D01*
X139038296Y-63211373D01*
X139032335Y-63235172D01*
X139024070Y-63258271D01*
X139013580Y-63280450D01*
X139000968Y-63301493D01*
X138986353Y-63321199D01*
X138969877Y-63339377D01*
X138951699Y-63355853D01*
X138931993Y-63370468D01*
X138910950Y-63383080D01*
X138888771Y-63393570D01*
X138865672Y-63401835D01*
X138841873Y-63407796D01*
X138817605Y-63411396D01*
X138793101Y-63412600D01*
X138143099Y-63412600D01*
X138118595Y-63411396D01*
X138094327Y-63407796D01*
X138070528Y-63401835D01*
X138047429Y-63393570D01*
X138025250Y-63383080D01*
X138004207Y-63370468D01*
X137984501Y-63355853D01*
X137966323Y-63339377D01*
X137949847Y-63321199D01*
X137935232Y-63301493D01*
X137922620Y-63280450D01*
X137912130Y-63258271D01*
X137903865Y-63235172D01*
X137897904Y-63211373D01*
X137894304Y-63187105D01*
X137893100Y-63162601D01*
X137893100Y-62262599D01*
X137894304Y-62238095D01*
X137897904Y-62213827D01*
X137903865Y-62190028D01*
X137912130Y-62166929D01*
X137922620Y-62144750D01*
X137935232Y-62123707D01*
X137949847Y-62104001D01*
X137966323Y-62085823D01*
X137984501Y-62069347D01*
X138004207Y-62054732D01*
X138025250Y-62042120D01*
X138047429Y-62031630D01*
X138070528Y-62023365D01*
X138094327Y-62017404D01*
X138118595Y-62013804D01*
X138143099Y-62012600D01*
X138793101Y-62012600D01*
X138817605Y-62013804D01*
X138817605Y-62013804D01*
G37*
D12*
X138468100Y-62712600D03*
D11*
G36*
X136767605Y-62013804D02*
X136791873Y-62017404D01*
X136815672Y-62023365D01*
X136838771Y-62031630D01*
X136860950Y-62042120D01*
X136881993Y-62054732D01*
X136901699Y-62069347D01*
X136919877Y-62085823D01*
X136936353Y-62104001D01*
X136950968Y-62123707D01*
X136963580Y-62144750D01*
X136974070Y-62166929D01*
X136982335Y-62190028D01*
X136988296Y-62213827D01*
X136991896Y-62238095D01*
X136993100Y-62262599D01*
X136993100Y-63162601D01*
X136991896Y-63187105D01*
X136988296Y-63211373D01*
X136982335Y-63235172D01*
X136974070Y-63258271D01*
X136963580Y-63280450D01*
X136950968Y-63301493D01*
X136936353Y-63321199D01*
X136919877Y-63339377D01*
X136901699Y-63355853D01*
X136881993Y-63370468D01*
X136860950Y-63383080D01*
X136838771Y-63393570D01*
X136815672Y-63401835D01*
X136791873Y-63407796D01*
X136767605Y-63411396D01*
X136743101Y-63412600D01*
X136093099Y-63412600D01*
X136068595Y-63411396D01*
X136044327Y-63407796D01*
X136020528Y-63401835D01*
X135997429Y-63393570D01*
X135975250Y-63383080D01*
X135954207Y-63370468D01*
X135934501Y-63355853D01*
X135916323Y-63339377D01*
X135899847Y-63321199D01*
X135885232Y-63301493D01*
X135872620Y-63280450D01*
X135862130Y-63258271D01*
X135853865Y-63235172D01*
X135847904Y-63211373D01*
X135844304Y-63187105D01*
X135843100Y-63162601D01*
X135843100Y-62262599D01*
X135844304Y-62238095D01*
X135847904Y-62213827D01*
X135853865Y-62190028D01*
X135862130Y-62166929D01*
X135872620Y-62144750D01*
X135885232Y-62123707D01*
X135899847Y-62104001D01*
X135916323Y-62085823D01*
X135934501Y-62069347D01*
X135954207Y-62054732D01*
X135975250Y-62042120D01*
X135997429Y-62031630D01*
X136020528Y-62023365D01*
X136044327Y-62017404D01*
X136068595Y-62013804D01*
X136093099Y-62012600D01*
X136743101Y-62012600D01*
X136767605Y-62013804D01*
X136767605Y-62013804D01*
G37*
D12*
X136418100Y-62712600D03*
G04 #@! TD*
D11*
G04 #@! TO.C,R2*
G36*
X122343705Y-73349204D02*
X122367973Y-73352804D01*
X122391772Y-73358765D01*
X122414871Y-73367030D01*
X122437050Y-73377520D01*
X122458093Y-73390132D01*
X122477799Y-73404747D01*
X122495977Y-73421223D01*
X122512453Y-73439401D01*
X122527068Y-73459107D01*
X122539680Y-73480150D01*
X122550170Y-73502329D01*
X122558435Y-73525428D01*
X122564396Y-73549227D01*
X122567996Y-73573495D01*
X122569200Y-73597999D01*
X122569200Y-74248001D01*
X122567996Y-74272505D01*
X122564396Y-74296773D01*
X122558435Y-74320572D01*
X122550170Y-74343671D01*
X122539680Y-74365850D01*
X122527068Y-74386893D01*
X122512453Y-74406599D01*
X122495977Y-74424777D01*
X122477799Y-74441253D01*
X122458093Y-74455868D01*
X122437050Y-74468480D01*
X122414871Y-74478970D01*
X122391772Y-74487235D01*
X122367973Y-74493196D01*
X122343705Y-74496796D01*
X122319201Y-74498000D01*
X121419199Y-74498000D01*
X121394695Y-74496796D01*
X121370427Y-74493196D01*
X121346628Y-74487235D01*
X121323529Y-74478970D01*
X121301350Y-74468480D01*
X121280307Y-74455868D01*
X121260601Y-74441253D01*
X121242423Y-74424777D01*
X121225947Y-74406599D01*
X121211332Y-74386893D01*
X121198720Y-74365850D01*
X121188230Y-74343671D01*
X121179965Y-74320572D01*
X121174004Y-74296773D01*
X121170404Y-74272505D01*
X121169200Y-74248001D01*
X121169200Y-73597999D01*
X121170404Y-73573495D01*
X121174004Y-73549227D01*
X121179965Y-73525428D01*
X121188230Y-73502329D01*
X121198720Y-73480150D01*
X121211332Y-73459107D01*
X121225947Y-73439401D01*
X121242423Y-73421223D01*
X121260601Y-73404747D01*
X121280307Y-73390132D01*
X121301350Y-73377520D01*
X121323529Y-73367030D01*
X121346628Y-73358765D01*
X121370427Y-73352804D01*
X121394695Y-73349204D01*
X121419199Y-73348000D01*
X122319201Y-73348000D01*
X122343705Y-73349204D01*
X122343705Y-73349204D01*
G37*
D12*
X121869200Y-73923000D03*
D11*
G36*
X122343705Y-71299204D02*
X122367973Y-71302804D01*
X122391772Y-71308765D01*
X122414871Y-71317030D01*
X122437050Y-71327520D01*
X122458093Y-71340132D01*
X122477799Y-71354747D01*
X122495977Y-71371223D01*
X122512453Y-71389401D01*
X122527068Y-71409107D01*
X122539680Y-71430150D01*
X122550170Y-71452329D01*
X122558435Y-71475428D01*
X122564396Y-71499227D01*
X122567996Y-71523495D01*
X122569200Y-71547999D01*
X122569200Y-72198001D01*
X122567996Y-72222505D01*
X122564396Y-72246773D01*
X122558435Y-72270572D01*
X122550170Y-72293671D01*
X122539680Y-72315850D01*
X122527068Y-72336893D01*
X122512453Y-72356599D01*
X122495977Y-72374777D01*
X122477799Y-72391253D01*
X122458093Y-72405868D01*
X122437050Y-72418480D01*
X122414871Y-72428970D01*
X122391772Y-72437235D01*
X122367973Y-72443196D01*
X122343705Y-72446796D01*
X122319201Y-72448000D01*
X121419199Y-72448000D01*
X121394695Y-72446796D01*
X121370427Y-72443196D01*
X121346628Y-72437235D01*
X121323529Y-72428970D01*
X121301350Y-72418480D01*
X121280307Y-72405868D01*
X121260601Y-72391253D01*
X121242423Y-72374777D01*
X121225947Y-72356599D01*
X121211332Y-72336893D01*
X121198720Y-72315850D01*
X121188230Y-72293671D01*
X121179965Y-72270572D01*
X121174004Y-72246773D01*
X121170404Y-72222505D01*
X121169200Y-72198001D01*
X121169200Y-71547999D01*
X121170404Y-71523495D01*
X121174004Y-71499227D01*
X121179965Y-71475428D01*
X121188230Y-71452329D01*
X121198720Y-71430150D01*
X121211332Y-71409107D01*
X121225947Y-71389401D01*
X121242423Y-71371223D01*
X121260601Y-71354747D01*
X121280307Y-71340132D01*
X121301350Y-71327520D01*
X121323529Y-71317030D01*
X121346628Y-71308765D01*
X121370427Y-71302804D01*
X121394695Y-71299204D01*
X121419199Y-71298000D01*
X122319201Y-71298000D01*
X122343705Y-71299204D01*
X122343705Y-71299204D01*
G37*
D12*
X121869200Y-71873000D03*
G04 #@! TD*
D11*
G04 #@! TO.C,R1*
G36*
X122356405Y-69428604D02*
X122380673Y-69432204D01*
X122404472Y-69438165D01*
X122427571Y-69446430D01*
X122449750Y-69456920D01*
X122470793Y-69469532D01*
X122490499Y-69484147D01*
X122508677Y-69500623D01*
X122525153Y-69518801D01*
X122539768Y-69538507D01*
X122552380Y-69559550D01*
X122562870Y-69581729D01*
X122571135Y-69604828D01*
X122577096Y-69628627D01*
X122580696Y-69652895D01*
X122581900Y-69677399D01*
X122581900Y-70327401D01*
X122580696Y-70351905D01*
X122577096Y-70376173D01*
X122571135Y-70399972D01*
X122562870Y-70423071D01*
X122552380Y-70445250D01*
X122539768Y-70466293D01*
X122525153Y-70485999D01*
X122508677Y-70504177D01*
X122490499Y-70520653D01*
X122470793Y-70535268D01*
X122449750Y-70547880D01*
X122427571Y-70558370D01*
X122404472Y-70566635D01*
X122380673Y-70572596D01*
X122356405Y-70576196D01*
X122331901Y-70577400D01*
X121431899Y-70577400D01*
X121407395Y-70576196D01*
X121383127Y-70572596D01*
X121359328Y-70566635D01*
X121336229Y-70558370D01*
X121314050Y-70547880D01*
X121293007Y-70535268D01*
X121273301Y-70520653D01*
X121255123Y-70504177D01*
X121238647Y-70485999D01*
X121224032Y-70466293D01*
X121211420Y-70445250D01*
X121200930Y-70423071D01*
X121192665Y-70399972D01*
X121186704Y-70376173D01*
X121183104Y-70351905D01*
X121181900Y-70327401D01*
X121181900Y-69677399D01*
X121183104Y-69652895D01*
X121186704Y-69628627D01*
X121192665Y-69604828D01*
X121200930Y-69581729D01*
X121211420Y-69559550D01*
X121224032Y-69538507D01*
X121238647Y-69518801D01*
X121255123Y-69500623D01*
X121273301Y-69484147D01*
X121293007Y-69469532D01*
X121314050Y-69456920D01*
X121336229Y-69446430D01*
X121359328Y-69438165D01*
X121383127Y-69432204D01*
X121407395Y-69428604D01*
X121431899Y-69427400D01*
X122331901Y-69427400D01*
X122356405Y-69428604D01*
X122356405Y-69428604D01*
G37*
D12*
X121881900Y-70002400D03*
D11*
G36*
X122356405Y-67378604D02*
X122380673Y-67382204D01*
X122404472Y-67388165D01*
X122427571Y-67396430D01*
X122449750Y-67406920D01*
X122470793Y-67419532D01*
X122490499Y-67434147D01*
X122508677Y-67450623D01*
X122525153Y-67468801D01*
X122539768Y-67488507D01*
X122552380Y-67509550D01*
X122562870Y-67531729D01*
X122571135Y-67554828D01*
X122577096Y-67578627D01*
X122580696Y-67602895D01*
X122581900Y-67627399D01*
X122581900Y-68277401D01*
X122580696Y-68301905D01*
X122577096Y-68326173D01*
X122571135Y-68349972D01*
X122562870Y-68373071D01*
X122552380Y-68395250D01*
X122539768Y-68416293D01*
X122525153Y-68435999D01*
X122508677Y-68454177D01*
X122490499Y-68470653D01*
X122470793Y-68485268D01*
X122449750Y-68497880D01*
X122427571Y-68508370D01*
X122404472Y-68516635D01*
X122380673Y-68522596D01*
X122356405Y-68526196D01*
X122331901Y-68527400D01*
X121431899Y-68527400D01*
X121407395Y-68526196D01*
X121383127Y-68522596D01*
X121359328Y-68516635D01*
X121336229Y-68508370D01*
X121314050Y-68497880D01*
X121293007Y-68485268D01*
X121273301Y-68470653D01*
X121255123Y-68454177D01*
X121238647Y-68435999D01*
X121224032Y-68416293D01*
X121211420Y-68395250D01*
X121200930Y-68373071D01*
X121192665Y-68349972D01*
X121186704Y-68326173D01*
X121183104Y-68301905D01*
X121181900Y-68277401D01*
X121181900Y-67627399D01*
X121183104Y-67602895D01*
X121186704Y-67578627D01*
X121192665Y-67554828D01*
X121200930Y-67531729D01*
X121211420Y-67509550D01*
X121224032Y-67488507D01*
X121238647Y-67468801D01*
X121255123Y-67450623D01*
X121273301Y-67434147D01*
X121293007Y-67419532D01*
X121314050Y-67406920D01*
X121336229Y-67396430D01*
X121359328Y-67388165D01*
X121383127Y-67382204D01*
X121407395Y-67378604D01*
X121431899Y-67377400D01*
X122331901Y-67377400D01*
X122356405Y-67378604D01*
X122356405Y-67378604D01*
G37*
D12*
X121881900Y-67952400D03*
G04 #@! TD*
M02*
